<?xml version="1.0" encoding="UTF-8" standalone="no"?>
<svg
   viewBox="0 0 24 24"
   version="1.1"
   id="svg28"
   sodipodi:docname="qr.svg"
   inkscape:export-filename="C:\Users\stropilova\angular\mobile-app\assets\images\qr.png"
   inkscape:export-xdpi="120"
   inkscape:export-ydpi="120"
   inkscape:version="1.1.2 (b8e25be833, 2022-02-05)"
   xmlns:inkscape="http://www.inkscape.org/namespaces/inkscape"
   xmlns:sodipodi="http://sodipodi.sourceforge.net/DTD/sodipodi-0.dtd"
   xmlns="http://www.w3.org/2000/svg"
   xmlns:svg="http://www.w3.org/2000/svg">
  <sodipodi:namedview
     id="namedview30"
     pagecolor="#505050"
     bordercolor="#eeeeee"
     borderopacity="1"
     inkscape:pageshadow="0"
     inkscape:pageopacity="0"
     inkscape:pagecheckerboard="0"
     showgrid="false"
     inkscape:zoom="29.958333"
     inkscape:cx="11.98331"
     inkscape:cy="11.98331"
     inkscape:window-width="1920"
     inkscape:window-height="1017"
     inkscape:window-x="1912"
     inkscape:window-y="-8"
     inkscape:window-maximized="1"
     inkscape:current-layer="svg28" />
  <defs
     id="defs4">
    <style
       id="style2">.cls-1,.cls-2{fill:none;}.cls-2{stroke:#fff;stroke-linecap:round;stroke-linejoin:round;}</style>
  </defs>
  <g
     data-name="Layer 2"
     id="Layer_2">
    <g
       id="Workspace">
      <rect
         class="cls-1"
         height="24"
         width="24"
         id="rect6" />
      <rect
         class="cls-2"
         height="3"
         width="3"
         x="8"
         y="8"
         id="rect8" />
      <rect
         class="cls-2"
         height="2"
         width="2"
         x="14"
         y="14"
         id="rect10" />
      <line
         class="cls-2"
         x1="8"
         x2="8"
         y1="13"
         y2="16"
         id="line12" />
      <polyline
         class="cls-2"
         points="10 13 10 16 12 16 12 13 12 12 13 12 16 12"
         id="polyline14" />
      <polyline
         class="cls-2"
         points="16 10 13 10 13 8 16 8"
         id="polyline16" />
      <path
         class="cls-2"
         d="M8,5H6A1,1,0,0,0,5,6V8"
         id="path18" />
      <path
         class="cls-2"
         d="M16,5h2a1,1,0,0,1,1,1V8"
         id="path20" />
      <path
         class="cls-2"
         d="M19,16v2a1,1,0,0,1-1,1H16"
         id="path22" />
      <path
         class="cls-2"
         d="M8,19H6a1,1,0,0,1-1-1V16"
         id="path24" />
    </g>
  </g>
</svg>
