<?xml version="1.0" encoding="UTF-8" standalone="no"?>
<svg
   version="1.1"
   width="841.88977"
   height="595.27557"
   id="svg845"
   viewBox="0 0 841.88977 595.27557"
   sodipodi:docname="LOGO NAUTIC RUS вектор Blue.svg"
   inkscape:version="1.1.2 (b8e25be833, 2022-02-05)"
   xmlns:inkscape="http://www.inkscape.org/namespaces/inkscape"
   xmlns:sodipodi="http://sodipodi.sourceforge.net/DTD/sodipodi-0.dtd"
   xmlns="http://www.w3.org/2000/svg"
   xmlns:svg="http://www.w3.org/2000/svg">
  <defs
     id="defs849" />
  <sodipodi:namedview
     id="namedview847"
     pagecolor="#ffffff"
     bordercolor="#666666"
     borderopacity="1.0"
     inkscape:pageshadow="2"
     inkscape:pageopacity="0.0"
     inkscape:pagecheckerboard="0"
     showgrid="false"
     inkscape:zoom="1.3573545"
     inkscape:cx="420.67123"
     inkscape:cy="297.63779"
     inkscape:window-width="1920"
     inkscape:window-height="1017"
     inkscape:window-x="-8"
     inkscape:window-y="-8"
     inkscape:window-maximized="1"
     inkscape:current-layer="Layer1000" />
  <g
     id="Layer1000">
    <path
       d="m 586.953,192.3817 h 21.6112 V 292.8549 H 586.953 Z"
       style="fill:#2c298a;fill-rule:evenodd;fill-opacity:1"
       id="path826" />
    <path
       d="m 475.0112,192.3845 h 96.6672 v 21.8664 h -37.9057 v 78.6069 H 512.12 v -78.6069 h -37.1088 z"
       style="fill:#2c298a;fill-rule:evenodd;fill-opacity:1"
       id="path828" />
    <path
       d="m 363.777,191.2116 h 25.349 v 57.2019 c 0,28.2009 49.7694,30.6273 49.7694,0.0322 v -57.2341 h 25.3459 v 57.4783 c 0,61.1581 -100.4643,64.6193 -100.4643,0 z"
       style="fill:#2c298a;fill-rule:evenodd;fill-opacity:1"
       id="path830" />
    <path
       d="m 137.4877,295.8655 h 25.349 v -57.2019 c 0,-28.2008 49.7694,-30.6272 49.7694,-0.0321 v 57.234 h 25.3459 v -57.4783 c 0,-61.1581 -100.4643,-64.6193 -100.4643,0 z"
       style="fill:#2c298a;fill-rule:evenodd;fill-opacity:1"
       id="path832" />
    <path
       d="m 703.5832,293.7692 v -25.349 h -36.3928 c -28.1783,0 -30.6272,-49.7694 -0.0321,-49.7694 h 36.4249 V 193.3049 H 666.914 c -61.1355,0 -64.6193,100.4643 0,100.4643 z"
       style="fill:#2c298a;fill-rule:evenodd;fill-opacity:1"
       id="path834" />
    <path
       d="m 351.6452,295.8655 h -25.3487 v -37.5369 l -49.7698,17.8645 v 19.6724 h -25.3458 v -57.477 c 0,-61.1581 100.4643,-64.6192 100.4643,0 z m -25.3487,-56.2638 v -0.9366 c 0,-28.2033 -49.7698,-30.6297 -49.7698,-0.0327 v 18.8368 z"
       style="fill:#2c298a;fill-rule:evenodd;fill-opacity:1"
       id="path836" />
    <path
       d="m 138.4481,325.9123 h 18.3344 c 10.0205,0 17.1747,0.7375 21.4297,2.2212 4.2699,1.4868 7.6834,3.9726 10.2703,7.4129 2.5869,3.4432 3.8953,7.5169 3.8953,12.2387 0,4.9479 -1.4332,9.0929 -4.2759,12.4113 -2.8575,3.3391 -7.1541,5.8577 -12.9018,7.5525 l 21.4089,33.4812 h -18.8607 l -20.3771,-31.8904 h -1.7454 v 31.8904 h -17.1777 z m 17.1777,32.4524 h 5.4741 c 5.5545,0 9.3694,-0.5947 11.4687,-1.8019 2.0814,-1.1983 3.131,-3.9369 3.131,-6.7349 0,-4.7665 -0.8355,-7.6656 -5.7179,-9.1583 -1.7276,-0.5292 -4.93,-0.8058 -9.5776,-0.8058 h -4.7783 z m 57.1321,-32.4524 h 17.3025 v 48.7262 c 0,4.1925 0.452,7.169 1.3292,8.8995 0.8861,1.7454 2.3341,3.137 4.3769,4.1777 2.0368,1.0378 4.5048,1.5552 7.3682,1.5552 3.0508,0 5.6585,-0.5858 7.8738,-1.7484 2.2033,-1.1597 3.7227,-2.6256 4.5672,-4.4216 0.8385,-1.7841 1.2608,-5.2095 1.2608,-10.2644 v -46.9242 h 17.3055 v 44.8963 c 0,7.5853 -0.5114,12.8335 -1.5403,15.7713 -1.0288,2.9348 -2.9942,5.7655 -5.8904,8.4951 -2.8902,2.7237 -6.2324,4.7546 -10.0205,6.0689 -3.7674,1.3053 -8.1681,1.9744 -13.1755,1.9744 -6.5683,0 -12.2982,-1.2578 -17.1568,-3.7585 -4.8824,-2.5155 -8.3673,-5.6436 -10.4636,-9.4229 -2.0904,-3.7703 -3.137,-10.1395 -3.137,-19.1283 z m 134.4123,14.5076 -12.7978,6.9103 c -15.6701,-17.9657 -28.8753,-2.6791 -13.9158,5.5574 8.5011,4.6832 18.6674,5.5633 26.6571,20.1065 1.4719,2.6791 2.1855,5.6139 2.1855,8.7777 0,14.5789 -14.8911,21.9203 -27.8673,21.3465 -14.793,-0.6542 -23.7342,-13.0803 -26.9068,-21.0403 l 13.0505,-6.824 c 4.7099,9.7589 10.2346,11.2783 15.9139,11.2783 2.9676,0 5.4772,-0.8831 7.4932,-2.3134 2.0189,-1.4302 3.0329,-3.0953 3.0329,-4.9656 0,-12.9673 -37.6708,-13.0952 -37.6708,-33.2404 0,-14.5015 11.7006,-21.9887 25.0871,-21.9887 12.0663,0 20.3861,5.4593 25.7383,16.3957 z"
       style="fill:#b1b3b4;fill-rule:evenodd"
       id="path838" />
    <path
       d="m 486.6998,344.8563 c 51.1198,-36.6896 90.2208,-7.2345 138.5812,-3.2352 22.1106,1.8257 48.5328,-2.9794 69.2459,-27.9059 -8.4981,53.5312 -80.6551,50.201 -118.1742,36.2227 -37.5103,-13.9782 -45.8151,-16.4521 -89.6529,-5.0816 z"
       style="fill:#63c6cf;fill-rule:evenodd"
       id="path840" />
    <path
       d="m 408.7219,383.5625 c 72.7218,-55.2369 128.346,-10.8916 197.1424,-4.8706 31.4541,2.7487 69.0417,-4.4855 98.5077,-42.0129 -12.0893,80.5923 -114.7381,75.5785 -168.112,54.534 -53.3612,-21.0445 -65.1755,-24.7691 -127.5381,-7.6505 z"
       style="fill:#63c6cf;fill-rule:evenodd"
       id="path842" />
  </g>
</svg>
