<?xml version="1.0" encoding="UTF-8" standalone="no"?>
<svg
   version="1.2"
   width="200.02mm"
   height="75.260002mm"
   viewBox="0 0 20002 7526.0002"
   preserveAspectRatio="xMidYMid"
   fill-rule="evenodd"
   stroke-width="28.222"
   stroke-linejoin="round"
   xml:space="preserve"
   id="svg135"
   sodipodi:docname="NAUTIC_RUS_logo_2.svg"
   inkscape:version="1.1.2 (b8e25be833, 2022-02-05)"
   xmlns:inkscape="http://www.inkscape.org/namespaces/inkscape"
   xmlns:sodipodi="http://sodipodi.sourceforge.net/DTD/sodipodi-0.dtd"
   xmlns="http://www.w3.org/2000/svg"
   xmlns:svg="http://www.w3.org/2000/svg"
   xmlns:ooo="http://xml.openoffice.org/svg/export"><sodipodi:namedview
   id="namedview137"
   pagecolor="#ffffff"
   bordercolor="#666666"
   borderopacity="1.0"
   inkscape:pageshadow="2"
   inkscape:pageopacity="0.0"
   inkscape:pagecheckerboard="0"
   inkscape:document-units="mm"
   showgrid="false"
   inkscape:zoom="0.95410354"
   inkscape:cx="377.84159"
   inkscape:cy="226.39052"
   inkscape:window-width="1920"
   inkscape:window-height="1017"
   inkscape:window-x="-8"
   inkscape:window-y="-8"
   inkscape:window-maximized="1"
   inkscape:current-layer="svg135"
   units="mm"
   fit-margin-top="0"
   fit-margin-left="0"
   fit-margin-right="0"
   fit-margin-bottom="0" />
 <defs
   class="ClipPathGroup"
   id="defs8">
  <clipPath
   id="presentation_clip_path"
   clipPathUnits="userSpaceOnUse">
   <rect
   x="0"
   y="0"
   width="29700"
   height="21000"
   id="rect2" />
  </clipPath>
  <clipPath
   id="presentation_clip_path_shrink"
   clipPathUnits="userSpaceOnUse">
   <rect
   x="29"
   y="21"
   width="29641"
   height="20958"
   id="rect5" />
  </clipPath>
 </defs>
 <defs
   class="TextShapeIndex"
   id="defs12">
  <g
   ooo:slide="id1"
   ooo:id-list="id3 id4 id5 id6 id7 id8 id9 id10 id11 id12"
   id="g10" />
 </defs>
 <defs
   class="EmbeddedBulletChars"
   id="defs44">
  <g
   id="bullet-char-template-57356"
   transform="matrix(4.8828125e-4,0,0,-4.8828125e-4,0,0)">
   <path
   d="M 580,1141 1163,571 580,0 -4,571 Z"
   id="path14" />
  </g>
  <g
   id="bullet-char-template-57354"
   transform="matrix(4.8828125e-4,0,0,-4.8828125e-4,0,0)">
   <path
   d="M 8,1128 H 1137 V 0 H 8 Z"
   id="path17" />
  </g>
  <g
   id="bullet-char-template-10146"
   transform="matrix(4.8828125e-4,0,0,-4.8828125e-4,0,0)">
   <path
   d="M 174,0 602,739 174,1481 1456,739 Z M 1358,739 309,1346 659,739 Z"
   id="path20" />
  </g>
  <g
   id="bullet-char-template-10132"
   transform="matrix(4.8828125e-4,0,0,-4.8828125e-4,0,0)">
   <path
   d="M 2015,739 1276,0 H 717 l 543,543 H 174 v 393 h 1086 l -543,545 h 557 z"
   id="path23" />
  </g>
  <g
   id="bullet-char-template-10007"
   transform="matrix(4.8828125e-4,0,0,-4.8828125e-4,0,0)">
   <path
   d="m 0,-2 c -7,16 -16,29 -25,39 l 381,530 c -94,256 -141,385 -141,387 0,25 13,38 40,38 9,0 21,-2 34,-5 21,4 42,12 65,25 l 27,-13 111,-251 280,301 64,-25 24,25 c 21,-10 41,-24 62,-43 C 886,937 835,863 770,784 769,783 710,716 594,584 L 774,223 c 0,-27 -21,-55 -63,-84 l 16,-20 C 717,90 699,76 672,76 641,76 570,178 457,381 L 164,-76 c -22,-34 -53,-51 -92,-51 -42,0 -63,17 -64,51 -7,9 -10,24 -10,44 0,9 1,19 2,30 z"
   id="path26" />
  </g>
  <g
   id="bullet-char-template-10004"
   transform="matrix(4.8828125e-4,0,0,-4.8828125e-4,0,0)">
   <path
   d="M 285,-33 C 182,-33 111,30 74,156 52,228 41,333 41,471 c 0,78 14,145 41,201 34,71 87,106 158,106 53,0 88,-31 106,-94 l 23,-176 c 8,-64 28,-97 59,-98 l 735,706 c 11,11 33,17 66,17 42,0 63,-15 63,-46 V 965 c 0,-36 -10,-64 -30,-84 L 442,47 C 390,-6 338,-33 285,-33 Z"
   id="path29" />
  </g>
  <g
   id="bullet-char-template-9679"
   transform="matrix(4.8828125e-4,0,0,-4.8828125e-4,0,0)">
   <path
   d="M 813,0 C 632,0 489,54 383,161 276,268 223,411 223,592 c 0,181 53,324 160,431 106,107 249,161 430,161 179,0 323,-54 432,-161 108,-107 162,-251 162,-431 0,-180 -54,-324 -162,-431 C 1136,54 992,0 813,0 Z"
   id="path32" />
  </g>
  <g
   id="bullet-char-template-8226"
   transform="matrix(4.8828125e-4,0,0,-4.8828125e-4,0,0)">
   <path
   d="m 346,457 c -73,0 -137,26 -191,78 -54,51 -81,114 -81,188 0,73 27,136 81,188 54,52 118,78 191,78 73,0 134,-26 185,-79 51,-51 77,-114 77,-187 0,-75 -25,-137 -76,-188 -50,-52 -112,-78 -186,-78 z"
   id="path35" />
  </g>
  <g
   id="bullet-char-template-8211"
   transform="matrix(4.8828125e-4,0,0,-4.8828125e-4,0,0)">
   <path
   d="M -4,459 H 1135 V 606 H -4 Z"
   id="path38" />
  </g>
  <g
   id="bullet-char-template-61548"
   transform="matrix(4.8828125e-4,0,0,-4.8828125e-4,0,0)">
   <path
   d="m 173,740 c 0,163 58,303 173,419 116,115 255,173 419,173 163,0 302,-58 418,-173 116,-116 174,-256 174,-419 0,-163 -58,-303 -174,-418 C 1067,206 928,148 765,148 601,148 462,206 346,322 231,437 173,577 173,740 Z"
   id="path41" />
  </g>
 </defs>
 <defs
   class="TextEmbeddedBitmaps"
   id="defs46" />
 <g
   id="g51"
   style="display:none"
   transform="translate(-4849,-6744)">
  <g
   id="id2"
   class="Master_Slide">
   <g
   id="bg-id2"
   class="Background" />
   <g
   id="bo-id2"
   class="BackgroundObjects" />
  </g>
 </g>
 <g
   class="SlideGroup"
   id="g133"
   style="display:inline"
   transform="translate(-4849,-6744)">
  <g
   id="g131">
   <g
   id="container-id1">
    <g
   id="id1"
   class="Slide"
   clip-path="url(#presentation_clip_path)">
     <g
   class="Page"
   id="g127">
      <g
   class="com.sun.star.drawing.PolyPolygonShape"
   id="g60"
   style="display:inline">
       
      </g>
      <g
   class="Group"
   id="g125">
       <g
   class="com.sun.star.drawing.PolyPolygonShape"
   id="g67">
        <g
   id="id4">
         <rect
   class="BoundingBox"
   stroke="none"
   fill="none"
   x="20706"
   y="6787"
   width="765"
   height="3547"
   id="rect62" />
         <path
   fill="#ffffff"
   stroke="none"
   d="m 20706,6787 h 764 v 3546 h -764 z"
   id="path64" />
        </g>
       </g>
       <g
   class="com.sun.star.drawing.PolyPolygonShape"
   id="g74">
        <g
   id="id5">
         <rect
   class="BoundingBox"
   stroke="none"
   fill="none"
   x="16757"
   y="6787"
   width="3412"
   height="3547"
   id="rect69" />
         <path
   fill="#ffffff"
   stroke="none"
   d="m 16757,6787 h 3411 v 771 h -1338 v 2775 h -764 V 7558 h -1309 z"
   id="path71" />
        </g>
       </g>
       <g
   class="com.sun.star.drawing.ClosedBezierShape"
   id="g81">
        <g
   id="id6">
         <rect
   class="BoundingBox"
   stroke="none"
   fill="none"
   x="12833"
   y="6745"
   width="3546"
   height="3695"
   id="rect76" />
         <path
   fill="#ffffff"
   stroke="none"
   d="m 12833,6745 h 894 v 2018 c 0,996 1757,1082 1757,2 V 6745 h 894 v 2028 c 0,2159 -3545,2281 -3545,0 z"
   id="path78" />
        </g>
       </g>
       <g
   class="com.sun.star.drawing.ClosedBezierShape"
   id="g88">
        <g
   id="id7">
         <rect
   class="BoundingBox"
   stroke="none"
   fill="none"
   x="4849"
   y="6744"
   width="3547"
   height="3695"
   id="rect83" />
         <path
   fill="#ffffff"
   stroke="none"
   d="m 4850,10438 h 894 V 8419 c 0,-995 1757,-1081 1757,-1 v 2020 h 894 V 8410 c 0,-2158 -3545,-2280 -3545,0 z"
   id="path85" />
        </g>
       </g>
       <g
   class="com.sun.star.drawing.ClosedBezierShape"
   id="g95">
        <g
   id="id8">
         <rect
   class="BoundingBox"
   stroke="none"
   fill="none"
   x="21863"
   y="6819"
   width="2960"
   height="3546"
   id="rect90" />
         <path
   fill="#ffffff"
   stroke="none"
   d="m 24821,10364 v -895 h -1285 c -995,0 -1081,-1756 -1,-1756 h 1286 v -894 h -1295 c -2156,0 -2279,3545 0,3545 z"
   id="path92" />
        </g>
       </g>
       <g
   class="com.sun.star.drawing.ClosedBezierShape"
   id="g102">
        <g
   id="id9">
         <rect
   class="BoundingBox"
   stroke="none"
   fill="none"
   x="8861"
   y="6746"
   width="3546"
   height="3694"
   id="rect97" />
         <path
   fill="#ffffff"
   stroke="none"
   d="m 12406,10439 h -895 V 9114 l -1756,631 v 694 H 8861 V 8411 c 0,-2158 3545,-2280 3545,0 z m 0,0 z m -895,-1986 v -33 c 0,-996 -1756,-1081 -1756,-1 v 665 z"
   id="path99" />
        </g>
       </g>
       <g
   class="com.sun.star.drawing.ClosedBezierShape"
   id="g109">
        <g
   id="id10">
         <rect
   class="BoundingBox"
   stroke="none"
   fill="none"
   x="4884"
   y="11431"
   width="7440"
   height="2794"
   id="rect104" />
         <path
   fill="#b1b3b4"
   stroke="none"
   d="m 4884,11497 h 646 c 354,0 606,26 756,78 151,53 271,141 363,262 91,121 137,265 137,432 0,174 -51,321 -151,438 -101,117 -252,207 -455,267 l 755,1181 h -665 l -719,-1125 h -62 v 1125 h -605 z m 0,0 z m 605,1145 h 194 c 196,0 330,-21 404,-64 74,-42 111,-138 111,-237 0,-168 -30,-271 -202,-323 -61,-19 -174,-29 -338,-29 h -169 z m 0,0 z m 2016,-1145 h 610 v 1720 c 0,148 16,253 47,314 32,62 83,111 155,147 72,37 159,55 260,55 108,0 200,-20 278,-61 78,-41 132,-93 162,-156 29,-63 44,-184 44,-363 v -1656 h 610 v 1585 c 0,268 -18,453 -54,556 -36,104 -105,204 -208,300 -102,96 -220,168 -353,214 -133,46 -288,70 -466,70 -232,0 -434,-45 -605,-133 -172,-89 -295,-199 -369,-332 -74,-133 -111,-358 -111,-675 z m 0,0 z m 4743,512 -452,244 c -553,-634 -1018,-95 -491,196 300,165 659,196 941,710 52,95 77,198 77,310 0,514 -525,773 -983,753 -522,-23 -838,-462 -949,-742 l 460,-241 c 166,344 361,398 561,398 105,0 194,-32 265,-82 71,-50 107,-109 107,-175 0,-458 -1329,-462 -1329,-1174 0,-511 413,-775 885,-775 425,0 719,192 908,578 z"
   id="path106" />
        </g>
       </g>
       <g
   class="com.sun.star.drawing.ClosedBezierShape"
   id="g116">
        <g
   id="id11">
         <rect
   class="BoundingBox"
   stroke="none"
   fill="none"
   x="17170"
   y="11067"
   width="7334"
   height="1590"
   id="rect111" />
         <path
   fill="#63c6cf"
   stroke="none"
   d="m 17170,12166 c 1803,-1294 3183,-255 4889,-114 781,64 1713,-105 2444,-985 -300,1889 -2846,1771 -4170,1278 -1323,-494 -1617,-581 -3163,-179 z"
   id="path113" />
        </g>
       </g>
       <g
   class="com.sun.star.drawing.ClosedBezierShape"
   id="g123">
        <g
   id="id12">
         <rect
   class="BoundingBox"
   stroke="none"
   fill="none"
   x="14419"
   y="11877"
   width="10432"
   height="2393"
   id="rect118" />
         <path
   fill="#63c6cf"
   stroke="none"
   d="m 14419,13531 c 2565,-1948 4528,-384 6955,-171 1111,97 2437,-159 3476,-1483 -426,2844 -4048,2667 -5931,1924 -1883,-743 -2300,-874 -4500,-270 z"
   id="path120" />
        </g>
       </g>
      </g>
     </g>
    </g>
   </g>
  </g>
 </g>
</svg>
